<svg width="40" height="42" viewBox="0 0 40 42" fill="none" xmlns="http://www.w3.org/2000/svg">
<path fill-rule="evenodd" clip-rule="evenodd" d="M11.7545 0.123896C13.8873 0.0225265 14.5673 0 20 0C25.4327 0 26.1127 0.0244037 28.2436 0.123896C30.3745 0.223388 31.8291 0.574427 33.1018 1.08315C34.4345 1.60314 35.6436 2.41597 36.6436 3.46721C37.6618 4.4978 38.4473 5.74428 38.9491 7.12215C39.4436 8.4362 39.7818 9.93797 39.88 12.1343C39.9782 14.34 40 15.0421 40 20.6494C40 26.2585 39.9764 26.9605 39.88 29.1625C39.7836 31.3589 39.4436 32.8606 38.9491 34.1747C38.4473 35.5527 37.6605 36.8013 36.6436 37.8334C35.6436 38.8846 34.4345 39.6956 33.1018 40.2137C31.8291 40.7243 30.3745 41.0734 28.2473 41.1748C26.1127 41.2762 25.4327 41.2987 20 41.2987C14.5673 41.2987 13.8873 41.2743 11.7545 41.1748C9.62727 41.0753 8.17273 40.7243 6.9 40.2137C5.56531 39.6955 4.35604 38.8832 3.35636 37.8334C2.33887 36.8022 1.55148 35.5542 1.04909 34.1766C0.556364 32.8625 0.218182 31.3607 0.12 29.1644C0.0218182 26.9587 0 26.2566 0 20.6494C0 15.0402 0.0236363 14.3382 0.12 12.1381C0.216364 9.93797 0.556364 8.4362 1.04909 7.12215C1.55222 5.74443 2.34022 4.49652 3.35818 3.46534C4.35644 2.41504 5.5645 1.6021 6.89818 1.08315C8.17091 0.574427 9.62546 0.225266 11.7527 0.123896H11.7545ZM28.0818 3.84078C25.9727 3.74129 25.34 3.72064 20 3.72064C14.66 3.72064 14.0273 3.74129 11.9182 3.84078C9.96727 3.93276 8.90909 4.26878 8.20364 4.55224C7.27091 4.92769 6.60364 5.37259 5.90364 6.09531C5.24008 6.76182 4.72942 7.57321 4.40909 8.46999C4.13455 9.19835 3.80909 10.2909 3.72 12.3051C3.62364 14.4827 3.60364 15.136 3.60364 20.6494C3.60364 26.1627 3.62364 26.816 3.72 28.9936C3.80909 31.0078 4.13455 32.1004 4.40909 32.8287C4.72909 33.7241 5.24 34.537 5.90364 35.2034C6.54909 35.8886 7.33636 36.4161 8.20364 36.7465C8.90909 37.0299 9.96727 37.3659 11.9182 37.4579C14.0273 37.5574 14.6582 37.5781 20 37.5781C25.3418 37.5781 25.9727 37.5574 28.0818 37.4579C30.0327 37.3659 31.0909 37.0299 31.7964 36.7465C32.7291 36.371 33.3964 35.9261 34.0964 35.2034C34.76 34.537 35.2709 33.7241 35.5909 32.8287C35.8655 32.1004 36.1909 31.0078 36.28 28.9936C36.3764 26.816 36.3964 26.1627 36.3964 20.6494C36.3964 15.136 36.3764 14.4827 36.28 12.3051C36.1909 10.2909 35.8655 9.19835 35.5909 8.46999C35.2273 7.50698 34.7964 6.81804 34.0964 6.09531C33.4508 5.41026 32.6649 4.88303 31.7964 4.55224C31.0909 4.26878 30.0327 3.93276 28.0818 3.84078ZM17.4455 27.015C18.8721 27.6281 20.4607 27.7109 21.9399 27.2491C23.4191 26.7873 24.6971 25.8097 25.5557 24.4831C26.4142 23.1565 26.8001 21.5633 26.6474 19.9756C26.4946 18.3879 25.8127 16.9043 24.7182 15.778C24.0204 15.058 23.1768 14.5068 22.2479 14.1639C21.319 13.821 20.3281 13.695 19.3464 13.7949C18.3647 13.8949 17.4166 14.2184 16.5706 14.742C15.7245 15.2657 15.0014 15.9765 14.4533 16.8233C13.9052 17.6701 13.5458 18.6319 13.4009 19.6393C13.2561 20.6468 13.3294 21.6749 13.6155 22.6496C13.9017 23.6242 14.3936 24.5213 15.0559 25.2762C15.7181 26.031 16.5342 26.6249 17.4455 27.015ZM12.7309 13.1443C13.6855 12.1587 14.8188 11.3769 16.066 10.8435C17.3132 10.3101 18.65 10.0355 20 10.0355C21.35 10.0355 22.6868 10.3101 23.934 10.8435C25.1812 11.3769 26.3145 12.1587 27.2691 13.1443C28.2237 14.1298 28.9809 15.2999 29.4975 16.5876C30.0141 17.8753 30.28 19.2555 30.28 20.6494C30.28 22.0432 30.0141 23.4234 29.4975 24.7111C28.9809 25.9988 28.2237 27.1689 27.2691 28.1545C25.3412 30.1449 22.7264 31.2632 20 31.2632C17.2736 31.2632 14.6588 30.1449 12.7309 28.1545C10.803 26.164 9.71995 23.4643 9.71995 20.6494C9.71995 17.8344 10.803 15.1347 12.7309 13.1443ZM32.56 11.6162C32.7966 11.3858 32.9859 11.1088 33.1169 10.8014C33.2479 10.4941 33.3178 10.1628 33.3226 9.82708C33.3273 9.49136 33.2668 9.15808 33.1445 8.84695C33.0223 8.53583 32.8408 8.25319 32.6108 8.01578C32.3809 7.77836 32.1071 7.591 31.8058 7.46477C31.5045 7.33855 31.1817 7.27604 30.8565 7.28093C30.5313 7.28582 30.2104 7.35803 29.9128 7.49327C29.6151 7.62851 29.3468 7.82403 29.1236 8.06826C28.6897 8.54326 28.4521 9.17417 28.4613 9.82708C28.4705 10.48 28.7258 11.1035 29.173 11.5652C29.6202 12.0269 30.2241 12.2905 30.8565 12.3001C31.4889 12.3096 32.0999 12.0643 32.56 11.6162Z" fill="#CC0000"/>
</svg>
