<svg width="67" height="109" viewBox="0 0 67 109" fill="none" xmlns="http://www.w3.org/2000/svg">
<path d="M64.6134 8.69386C63.0404 5.86892 60.6149 3.60248 57.6768 2.21218C54.6421 0.737392 50.9837 0 46.7015 0H29.7821V42.3531C32.0266 41.8805 34.6121 41.3295 37.2687 40.7443V7.05684H46.9227C50.8612 7.05684 53.9135 8.06908 56.0796 10.0936C58.2457 12.118 59.328 14.9731 59.3267 18.6587V34.2264C59.3267 37.912 58.2443 40.7677 56.0796 42.7936C54.2673 44.4869 22.5248 50.862 22.5248 50.862V57.9188L22.7115 57.8806C23.9982 57.6172 26.5492 57.1305 29.7171 56.5272V89.7762C29.7171 93.5919 28.7423 96.5414 26.7927 98.6249C24.8431 100.708 22.0878 101.753 18.5268 101.76C14.9915 101.76 12.2551 100.716 10.3177 98.6289C8.38025 96.5414 7.41153 93.5919 7.41153 89.7802V61.1566L0 62.7233V89.5248C0 93.6274 0.726538 97.1374 2.17962 100.055C3.5407 102.875 5.75739 105.203 8.5196 106.713C11.2918 108.238 14.6275 109 18.5268 109C22.4504 109 25.805 108.238 28.5908 106.713C31.3605 105.207 33.5841 102.878 34.949 100.055C36.4021 97.1387 37.1287 93.6287 37.1287 89.5248V55.1033C46.2165 53.3517 56.2379 51.3507 57.6585 50.6609C60.6035 49.2777 63.0362 47.0134 64.6134 44.1872C66.2045 41.3489 67 37.9301 67 33.9308V18.9503C67 14.9483 66.2045 11.5295 64.6134 8.69386Z" fill="black"/>
</svg>
