<svg width="40" height="42" viewBox="0 0 40 42" fill="none" xmlns="http://www.w3.org/2000/svg">
<path fill-rule="evenodd" clip-rule="evenodd" d="M40 20.6494C40 32.053 31.045 41.2987 20 41.2987C8.955 41.2987 0 32.053 0 20.6494C0 9.24575 8.955 0 20 0C31.045 0 40 9.24575 40 20.6494ZM20.7167 15.2444C18.7717 16.079 14.8833 17.8083 9.05333 20.4308C8.10667 20.8197 7.61 21.2 7.565 21.5717C7.48833 22.2015 8.25167 22.4493 9.28833 22.7848C9.43 22.8313 9.57667 22.8778 9.72667 22.9294C10.7483 23.2718 12.1217 23.6728 12.835 23.6882C13.4833 23.702 14.2067 23.4267 15.005 22.8623C20.4517 19.0645 23.2633 17.1458 23.44 17.1045C23.565 17.0753 23.7383 17.0374 23.855 17.1458C23.9717 17.2525 23.96 17.4556 23.9483 17.5106C23.8717 17.8428 20.8817 20.7147 19.3317 22.2015C18.8483 22.6644 18.5067 22.9931 18.4367 23.0688C18.28 23.2357 18.12 23.3957 17.9667 23.5489C17.0167 24.4919 16.3067 25.2008 18.0067 26.3572C18.8233 26.913 19.4767 27.3724 20.1283 27.8302C20.84 28.3309 21.55 28.8299 22.47 29.4529C22.7033 29.6112 22.9267 29.7746 23.145 29.9347C23.9733 30.5456 24.7183 31.0928 25.6383 31.0067C26.1717 30.9551 26.725 30.4371 27.005 28.8902C27.6667 25.2318 28.97 17.3093 29.2717 14.0433C29.29 13.7721 29.2788 13.4997 29.2383 13.2311C29.2141 13.0141 29.1118 12.8145 28.9517 12.6718C28.7133 12.4705 28.3433 12.4275 28.1767 12.4309C27.425 12.4447 26.2717 12.8594 20.7167 15.2444Z" fill="#CC0000"/>
</svg>
