<svg width="200" height="334" viewBox="0 0 200 334" fill="none" xmlns="http://www.w3.org/2000/svg">
<path d="M192.876 26.6228C188.177 17.973 180.937 11.0346 172.169 6.77897C163.111 2.25966 152.19 0 139.408 0H88.9017V129.768C95.6019 128.32 103.32 126.631 111.25 124.838V21.6064H140.068C151.825 21.6064 160.936 24.7083 167.402 30.9121C173.868 37.1159 177.099 45.8649 177.095 57.1591V104.865C177.095 116.159 173.864 124.91 167.402 131.118C161.992 136.307 67.2381 155.842 67.2381 155.842V177.467L67.7955 177.35C71.6363 176.543 79.2512 175.052 88.7078 173.203V275.091C88.7078 286.783 85.798 295.822 79.9782 302.207C74.1585 308.591 65.9336 311.794 55.3038 311.814C44.7507 311.814 36.5825 308.616 30.7991 302.219C25.0157 295.822 22.124 286.783 22.124 275.103V187.389L0 192.19V274.32C0 286.892 2.16877 297.648 6.50633 306.588C10.5692 315.231 17.1862 322.365 25.4316 326.993C33.7069 331.664 43.6643 334 55.3038 334C67.016 334 77.03 331.664 85.3456 326.993C93.6133 322.377 100.251 315.241 104.325 306.588C108.663 297.652 110.832 286.896 110.832 274.32V168.84C137.96 163.472 167.874 157.34 172.115 155.226C180.906 150.988 188.168 144.049 192.876 135.388C197.625 126.695 200 116.218 200 103.959V58.0526C200 45.7889 197.625 35.3123 192.876 26.6228Z" fill="url(#paint0_linear_93_183)" fill-opacity="0.75"/>
<defs>
<linearGradient id="paint0_linear_93_183" x1="100" y1="335.479" x2="100" y2="5.40467" gradientUnits="userSpaceOnUse">
<stop stop-color="#FF1E00"/>
<stop offset="0.59" stop-color="#680C00"/>
<stop offset="1"/>
</linearGradient>
</defs>
</svg>
